<svg xmlns="http://www.w3.org/2000/svg" xmlns:xlink="http://www.w3.org/1999/xlink" width="500" zoomAndPan="magnify" viewBox="0 0 375 374.999991" height="500" preserveAspectRatio="xMidYMid meet" version="1.0"><defs><clipPath id="2b67765f46"><path d="M 187.5 37.5 L 337.5 37.5 L 337.5 197 L 187.5 197 Z M 187.5 37.5 " clip-rule="nonzero"/></clipPath><clipPath id="8fff2a2713"><path d="M 261 37.5 L 337.5 37.5 L 337.5 197 L 261 197 Z M 261 37.5 " clip-rule="nonzero"/></clipPath><clipPath id="41993de64a"><path d="M 27.867188 57 L 168.867188 57 L 168.867188 185 L 27.867188 185 Z M 27.867188 57 " clip-rule="nonzero"/></clipPath><clipPath id="d354637314"><path d="M 288 265 L 336 265 L 336 319.8125 L 288 319.8125 Z M 288 265 " clip-rule="nonzero"/></clipPath><clipPath id="6ed89668b5"><path d="M 39 235.8125 L 273 235.8125 L 273 319.8125 L 39 319.8125 Z M 39 235.8125 " clip-rule="nonzero"/></clipPath><clipPath id="ae64fb7c63"><path d="M 101 266 L 255 266 L 255 319.8125 L 101 319.8125 Z M 101 266 " clip-rule="nonzero"/></clipPath></defs><rect x="-37.5" width="450" fill="#ffffff" y="-37.499999" height="449.999989" fill-opacity="1"/><rect x="-37.5" width="450" fill="#eceff1" y="-37.499999" height="449.999989" fill-opacity="1"/><g clip-path="url(#2b67765f46)"><path fill="#e23237" d="M 187.5 64.273438 L 261.46875 37.96875 L 337.378906 63.863281 L 325.113281 161.605469 L 261.46875 196.78125 L 198.855469 162.0625 Z M 187.5 64.273438 " fill-opacity="1" fill-rule="nonzero"/></g><g clip-path="url(#8fff2a2713)"><path fill="#b52e31" d="M 337.378906 63.863281 L 261.46875 37.96875 L 261.46875 196.78125 L 325.113281 161.605469 Z M 337.378906 63.863281 " fill-opacity="1" fill-rule="nonzero"/></g><path fill="#ffffff" d="M 261.582031 56.53125 L 215.488281 158.964844 L 232.6875 158.617188 L 241.976562 135.46875 L 283.203125 135.46875 L 293.292969 158.796875 L 309.695312 159.144531 Z M 261.695312 89.414062 L 277.292969 121.957031 L 248.097656 121.957031 L 261.738281 89.414062 Z M 261.695312 89.414062 " fill-opacity="1" fill-rule="nonzero"/><path fill="#98ccfd" d="M 110.707031 120.609375 C 110.707031 127.445312 105.1875 132.976562 98.367188 132.976562 C 91.546875 132.976562 86.03125 127.445312 86.03125 120.609375 C 86.03125 113.773438 91.546875 108.246094 98.367188 108.246094 C 105.1875 108.246094 110.707031 113.773438 110.707031 120.609375 Z M 110.707031 120.609375 " fill-opacity="1" fill-rule="nonzero"/><path fill="#4788c7" d="M 98.367188 134.742188 C 90.589844 134.742188 84.269531 128.402344 84.269531 120.609375 C 84.269531 112.816406 90.589844 106.476562 98.367188 106.476562 C 106.144531 106.476562 112.46875 112.816406 112.46875 120.609375 C 112.46875 128.402344 106.144531 134.742188 98.367188 134.742188 Z M 98.367188 110.011719 C 92.539062 110.011719 87.792969 114.765625 87.792969 120.609375 C 87.792969 126.453125 92.539062 131.207031 98.367188 131.207031 C 104.199219 131.207031 108.941406 126.453125 108.941406 120.609375 C 108.941406 114.765625 104.199219 110.011719 98.367188 110.011719 Z M 98.367188 110.011719 " fill-opacity="1" fill-rule="nonzero"/><path fill="#98ccfd" d="M 167.105469 120.609375 C 167.105469 110.730469 156.839844 102.125 140.695312 96.632812 C 142.726562 87.195312 143.003906 78.773438 141.28125 72.320312 C 139.84375 66.945312 137.117188 63.074219 133.1875 60.828125 C 130.824219 59.480469 128.117188 58.789062 125.152344 58.789062 C 117.375 58.789062 107.90625 63.738281 98.375 72.183594 C 88.835938 63.734375 79.363281 58.78125 71.578125 58.78125 C 68.609375 58.78125 65.910156 59.46875 63.542969 60.820312 C 59.613281 63.070312 56.886719 66.945312 55.449219 72.324219 C 53.726562 78.777344 54.003906 87.199219 56.03125 96.632812 C 39.894531 102.125 29.628906 110.734375 29.628906 120.609375 C 29.628906 130.484375 39.894531 139.09375 56.035156 144.585938 C 54.003906 154.015625 53.726562 162.441406 55.453125 168.890625 C 56.890625 174.273438 59.617188 178.144531 63.550781 180.398438 C 65.917969 181.746094 68.621094 182.4375 71.585938 182.4375 C 71.589844 182.4375 71.585938 182.4375 71.589844 182.4375 C 79.371094 182.4375 88.839844 177.484375 98.371094 169.035156 C 107.902344 177.476562 117.371094 182.421875 125.152344 182.425781 C 128.121094 182.425781 130.824219 181.738281 133.191406 180.386719 C 137.117188 178.140625 139.84375 174.269531 141.277344 168.894531 C 143 162.441406 142.722656 154.019531 140.695312 144.585938 C 156.835938 139.097656 167.105469 130.488281 167.105469 120.609375 Z M 129.699219 66.96875 C 131.933594 68.246094 133.539062 70.664062 134.46875 74.152344 C 135.882812 79.4375 135.605469 86.546875 133.914062 94.605469 C 128.289062 93.132812 122.128906 92.015625 115.554688 91.292969 C 111.644531 85.988281 107.558594 81.207031 103.429688 77.015625 C 111.878906 69.644531 119.636719 65.859375 125.152344 65.859375 C 126.882812 65.859375 128.40625 66.234375 129.699219 66.96875 Z M 118.757812 132.222656 C 116.453125 136.167969 114.089844 139.824219 111.695312 143.242188 C 107.449219 143.613281 103 143.8125 98.363281 143.8125 C 93.726562 143.8125 89.277344 143.609375 85.027344 143.242188 C 82.632812 139.824219 80.265625 136.167969 77.964844 132.222656 C 75.722656 128.371094 73.691406 124.480469 71.863281 120.609375 C 73.691406 116.742188 75.722656 112.847656 77.96875 108.996094 C 80.269531 105.050781 82.640625 101.394531 85.03125 97.972656 C 89.28125 97.601562 93.730469 97.402344 98.367188 97.402344 C 103.003906 97.402344 107.453125 97.601562 111.695312 97.972656 C 114.089844 101.394531 116.453125 105.046875 118.757812 108.992188 C 121 112.84375 123.035156 116.738281 124.863281 120.605469 C 123.035156 124.480469 121 128.371094 118.757812 132.222656 Z M 128.535156 129.058594 C 129.980469 132.71875 131.199219 136.308594 132.203125 139.78125 C 128.714844 140.695312 124.953125 141.472656 120.945312 142.097656 C 122.273438 140.039062 123.582031 137.949219 124.84375 135.785156 C 126.148438 133.550781 127.363281 131.308594 128.535156 129.058594 Z M 98.367188 159.410156 C 95.796875 156.804688 93.195312 153.914062 90.59375 150.683594 C 93.148438 150.804688 95.730469 150.878906 98.367188 150.878906 C 101 150.878906 103.585938 150.804688 106.132812 150.683594 C 103.535156 153.914062 100.9375 156.808594 98.367188 159.410156 Z M 75.78125 142.097656 C 71.777344 141.472656 68.015625 140.695312 64.527344 139.78125 C 65.53125 136.308594 66.75 132.722656 68.195312 129.0625 C 69.363281 131.308594 70.582031 133.554688 71.878906 135.785156 C 73.144531 137.949219 74.453125 140.039062 75.78125 142.097656 Z M 68.195312 112.15625 C 66.75 108.496094 65.53125 104.910156 64.527344 101.4375 C 68.015625 100.523438 71.777344 99.746094 75.785156 99.121094 C 74.457031 101.179688 73.144531 103.269531 71.882812 105.433594 C 70.578125 107.667969 69.363281 109.910156 68.195312 112.15625 Z M 98.371094 81.8125 C 100.941406 84.414062 103.539062 87.304688 106.132812 90.535156 C 103.585938 90.414062 101 90.339844 98.367188 90.339844 C 95.734375 90.339844 93.152344 90.414062 90.601562 90.535156 C 93.199219 87.304688 95.800781 84.414062 98.371094 81.8125 Z M 124.84375 105.433594 C 123.582031 103.265625 122.273438 101.175781 120.945312 99.117188 C 124.953125 99.742188 128.714844 100.519531 132.203125 101.433594 C 131.199219 104.910156 129.980469 108.496094 128.535156 112.160156 C 127.363281 109.914062 126.148438 107.667969 124.84375 105.433594 Z M 62.261719 74.15625 C 63.195312 70.660156 64.800781 68.242188 67.039062 66.957031 C 68.328125 66.222656 69.855469 65.847656 71.578125 65.847656 C 77.101562 65.847656 84.859375 69.636719 93.3125 77.015625 C 89.179688 81.210938 85.09375 85.988281 81.175781 91.296875 C 74.601562 92.015625 68.445312 93.140625 62.816406 94.613281 C 61.125 86.546875 60.847656 79.4375 62.261719 74.15625 Z M 36.679688 120.609375 C 36.679688 114.5 44.542969 108.011719 57.769531 103.449219 C 59.363281 108.980469 61.488281 114.75 64.105469 120.609375 C 61.488281 126.46875 59.363281 132.238281 57.769531 137.769531 C 44.542969 133.207031 36.679688 126.71875 36.679688 120.609375 Z M 71.582031 175.371094 C 69.855469 175.371094 68.324219 174.996094 67.039062 174.265625 C 64.800781 172.980469 63.191406 170.5625 62.261719 167.066406 C 60.847656 161.78125 61.125 154.671875 62.816406 146.613281 C 68.445312 148.085938 74.597656 149.207031 81.171875 149.925781 C 85.089844 155.234375 89.179688 160.015625 93.3125 164.210938 C 84.859375 171.585938 77.101562 175.371094 71.582031 175.371094 Z M 134.46875 167.066406 C 133.53125 170.554688 131.929688 172.972656 129.695312 174.25 C 128.40625 174.984375 126.878906 175.359375 125.152344 175.359375 C 119.628906 175.359375 111.871094 171.574219 103.421875 164.207031 C 107.554688 160.011719 111.640625 155.230469 115.550781 149.925781 C 122.125 149.207031 128.28125 148.082031 133.90625 146.613281 C 135.601562 154.671875 135.878906 161.78125 134.46875 167.066406 Z M 138.957031 137.773438 C 137.363281 132.242188 135.238281 126.46875 132.625 120.609375 C 135.238281 114.75 137.363281 108.976562 138.957031 103.445312 C 152.1875 108.007812 160.054688 114.5 160.054688 120.609375 C 160.054688 126.71875 152.1875 133.210938 138.957031 137.773438 Z M 138.957031 137.773438 " fill-opacity="1" fill-rule="nonzero"/><g clip-path="url(#41993de64a)"><path fill="#4788c7" d="M 71.585938 184.203125 C 68.304688 184.203125 65.308594 183.4375 62.671875 181.933594 C 58.3125 179.433594 55.308594 175.199219 53.75 169.347656 C 52.085938 163.121094 52.175781 154.988281 53.996094 145.738281 C 37.363281 139.757812 27.867188 130.648438 27.867188 120.609375 C 27.867188 110.570312 37.363281 101.460938 53.996094 95.476562 C 52.171875 86.230469 52.085938 78.09375 53.75 71.867188 C 55.308594 66.019531 58.3125 61.785156 62.671875 59.289062 C 71.554688 54.207031 84.449219 57.898438 98.371094 69.84375 C 112.292969 57.910156 125.175781 54.222656 134.0625 59.296875 C 138.414062 61.785156 141.417969 66.015625 142.984375 71.867188 C 144.648438 78.09375 144.554688 86.230469 142.734375 95.476562 C 159.367188 101.457031 168.867188 110.570312 168.867188 120.609375 C 168.867188 130.648438 159.367188 139.761719 142.734375 145.746094 C 144.558594 154.992188 144.644531 163.125 142.980469 169.351562 C 141.417969 175.203125 138.417969 179.433594 134.066406 181.921875 C 125.171875 187.003906 112.277344 183.304688 98.367188 171.378906 C 88.582031 179.777344 79.347656 184.203125 71.585938 184.203125 Z M 71.578125 60.550781 C 68.921875 60.550781 66.511719 61.15625 64.417969 62.355469 C 60.90625 64.367188 58.464844 67.875 57.15625 72.78125 C 55.542969 78.8125 55.753906 86.929688 57.757812 96.261719 L 58.089844 97.800781 L 56.601562 98.308594 C 40.578125 103.757812 31.394531 111.886719 31.394531 120.609375 C 31.394531 129.332031 40.578125 137.460938 56.601562 142.914062 L 58.085938 143.421875 L 57.757812 144.960938 C 55.75 154.292969 55.539062 162.410156 57.152344 168.441406 C 58.460938 173.347656 60.902344 176.859375 64.421875 178.871094 C 66.519531 180.0625 68.925781 180.667969 71.582031 180.667969 L 71.585938 180.667969 C 78.675781 180.667969 87.773438 176.070312 97.199219 167.714844 L 98.367188 166.679688 L 99.535156 167.714844 C 108.960938 176.058594 118.058594 180.660156 125.152344 180.660156 C 127.808594 180.660156 130.21875 180.050781 132.320312 178.855469 C 135.824219 176.847656 138.265625 173.34375 139.574219 168.4375 C 141.1875 162.40625 140.976562 154.292969 138.972656 144.960938 L 138.640625 143.421875 L 140.128906 142.914062 C 156.152344 137.464844 165.34375 129.332031 165.34375 120.609375 C 165.34375 111.882812 156.152344 103.753906 140.128906 98.304688 L 138.640625 97.796875 L 138.976562 96.257812 C 140.980469 86.925781 141.191406 78.808594 139.578125 72.777344 C 138.265625 67.871094 135.824219 64.367188 132.3125 62.363281 C 130.214844 61.164062 127.808594 60.554688 125.152344 60.554688 C 118.066406 60.554688 108.972656 65.15625 99.539062 73.507812 L 98.371094 74.542969 L 97.203125 73.507812 C 87.773438 65.152344 78.671875 60.550781 71.578125 60.550781 Z M 71.582031 177.136719 C 69.546875 177.136719 67.726562 176.6875 66.171875 175.796875 C 63.503906 174.269531 61.617188 171.488281 60.554688 167.523438 C 59.117188 162.128906 59.304688 154.769531 61.089844 146.25 L 61.472656 144.4375 L 63.257812 144.902344 C 68.867188 146.367188 74.949219 147.46875 81.359375 148.171875 L 82.125 148.253906 L 82.585938 148.871094 C 86.367188 154 90.402344 158.742188 94.5625 162.964844 L 95.878906 164.304688 L 94.464844 165.542969 C 85.902344 173.015625 77.773438 177.136719 71.582031 177.136719 Z M 64.1875 148.777344 C 62.535156 155.984375 62.488281 162.121094 63.964844 166.609375 C 64.945312 169.578125 66.097656 171.6875 67.914062 172.726562 C 72.476562 175.339844 81.355469 171.890625 90.734375 164.085938 C 87.089844 160.269531 83.558594 156.078125 80.214844 151.59375 C 74.597656 150.949219 69.214844 150.003906 64.1875 148.777344 Z M 125.152344 177.125 C 118.960938 177.125 110.832031 173.011719 102.273438 165.539062 L 100.859375 164.304688 L 102.179688 162.964844 C 106.355469 158.71875 110.378906 153.980469 114.140625 148.875 L 114.601562 148.253906 L 115.367188 148.171875 C 121.78125 147.46875 127.875 146.367188 133.476562 144.902344 L 135.265625 144.4375 L 135.644531 146.25 C 137.433594 154.777344 137.617188 162.132812 136.175781 167.523438 C 135.117188 171.484375 133.230469 174.265625 130.574219 175.785156 C 129.011719 176.675781 127.1875 177.125 125.152344 177.125 Z M 106.003906 164.085938 C 115.378906 171.882812 124.230469 175.335938 128.828125 172.71875 C 130.636719 171.683594 131.785156 169.574219 132.765625 166.613281 C 134.253906 162.121094 134.191406 155.984375 132.546875 148.78125 C 127.515625 150.007812 122.132812 150.949219 116.511719 151.597656 C 113.1875 156.0625 109.660156 160.253906 106.003906 164.085938 Z M 98.367188 161.925781 L 97.117188 160.65625 C 94.390625 157.894531 91.738281 154.914062 89.226562 151.792969 L 86.761719 148.730469 L 90.679688 148.917969 C 95.722656 149.160156 101.011719 149.160156 106.050781 148.917969 L 109.96875 148.730469 L 107.507812 151.792969 C 105.003906 154.898438 102.355469 157.878906 99.621094 160.648438 Z M 94.484375 152.597656 C 95.75 154.070312 97.050781 155.5 98.367188 156.878906 C 99.6875 155.492188 100.980469 154.066406 102.25 152.597656 C 99.679688 152.664062 97.054688 152.664062 94.484375 152.597656 Z M 98.367188 145.582031 C 93.839844 145.582031 89.304688 145.386719 84.878906 145 L 84.058594 144.929688 L 83.585938 144.253906 C 81.046875 140.628906 78.644531 136.875 76.449219 133.113281 C 74.265625 129.363281 72.1875 125.414062 70.269531 121.367188 L 69.910156 120.609375 L 70.269531 119.851562 C 72.1875 115.804688 74.265625 111.851562 76.449219 108.105469 C 78.671875 104.296875 81.007812 100.65625 83.59375 96.960938 L 84.066406 96.289062 L 84.882812 96.21875 C 93.726562 95.449219 103.011719 95.449219 111.847656 96.21875 L 112.664062 96.289062 L 113.136719 96.964844 C 115.730469 100.671875 118.070312 104.320312 120.277344 108.105469 C 122.480469 111.886719 124.558594 115.835938 126.453125 119.855469 L 126.8125 120.609375 L 126.453125 121.367188 C 124.558594 125.382812 122.480469 129.335938 120.277344 133.117188 C 118.070312 136.902344 115.730469 140.550781 113.136719 144.257812 L 112.664062 144.933594 L 111.847656 145.003906 C 107.425781 145.386719 102.894531 145.582031 98.367188 145.582031 Z M 86 141.554688 C 94.136719 142.214844 102.601562 142.214844 110.726562 141.554688 C 113.078125 138.15625 115.210938 134.804688 117.238281 131.332031 C 119.25 127.878906 121.15625 124.277344 122.914062 120.609375 C 121.15625 116.941406 119.25 113.339844 117.238281 109.886719 C 115.214844 106.414062 113.078125 103.0625 110.726562 99.667969 C 102.597656 99.003906 94.121094 99.003906 86.003906 99.667969 C 83.660156 103.050781 81.523438 106.398438 79.488281 109.890625 C 77.496094 113.308594 75.585938 116.914062 73.8125 120.609375 C 75.585938 124.300781 77.492188 127.90625 79.488281 131.332031 C 81.5 134.777344 83.691406 138.210938 86 141.554688 Z M 117.320312 144.453125 L 119.460938 141.140625 C 120.777344 139.105469 122.070312 137.035156 123.320312 134.898438 C 124.609375 132.683594 125.8125 130.460938 126.96875 128.246094 L 128.753906 124.824219 L 130.171875 128.414062 C 131.597656 132.027344 132.851562 135.691406 133.894531 139.296875 L 134.398438 141.042969 L 132.648438 141.5 C 129.0625 142.433594 125.222656 143.222656 121.214844 143.847656 Z M 128.257812 133.328125 C 127.644531 134.445312 127.011719 135.5625 126.363281 136.679688 C 125.769531 137.699219 125.164062 138.699219 124.554688 139.6875 C 126.417969 139.335938 128.226562 138.949219 129.984375 138.523438 C 129.453125 136.792969 128.875 135.058594 128.257812 133.328125 Z M 79.40625 144.453125 L 75.511719 143.84375 C 71.507812 143.21875 67.660156 142.429688 64.085938 141.496094 L 62.335938 141.039062 L 62.839844 139.296875 C 63.875 135.707031 65.125 132.046875 66.5625 128.417969 L 67.980469 124.824219 L 69.761719 128.25 C 70.914062 130.46875 72.117188 132.6875 73.40625 134.898438 C 74.65625 137.039062 75.953125 139.109375 77.265625 141.144531 Z M 66.746094 138.519531 C 68.492188 138.9375 70.304688 139.328125 72.164062 139.679688 C 71.554688 138.695312 70.949219 137.695312 70.359375 136.675781 C 69.707031 135.5625 69.082031 134.449219 68.46875 133.328125 C 67.847656 135.066406 67.273438 136.796875 66.746094 138.519531 Z M 137.777344 140.046875 L 137.261719 138.261719 C 135.691406 132.792969 133.585938 127.097656 131.015625 121.332031 L 130.691406 120.609375 L 131.015625 119.890625 C 133.585938 114.128906 135.691406 108.429688 137.265625 102.957031 L 137.78125 101.175781 L 139.535156 101.777344 C 153.488281 106.585938 161.816406 113.628906 161.816406 120.609375 C 161.816406 127.59375 153.488281 134.632812 139.53125 139.445312 Z M 134.550781 120.609375 C 136.773438 125.652344 138.636719 130.644531 140.117188 135.480469 C 151.21875 131.347656 158.292969 125.597656 158.292969 120.609375 C 158.292969 115.621094 151.21875 109.871094 140.117188 105.738281 C 138.636719 110.582031 136.769531 115.570312 134.550781 120.609375 Z M 58.949219 140.042969 L 57.195312 139.441406 C 43.246094 134.628906 34.917969 127.589844 34.917969 120.609375 C 34.917969 113.628906 43.246094 106.589844 57.195312 101.777344 L 58.949219 101.175781 L 59.460938 102.957031 C 61.046875 108.449219 63.144531 114.148438 65.707031 119.890625 L 66.035156 120.609375 L 65.710938 121.332031 C 63.144531 127.070312 61.046875 132.769531 59.464844 138.261719 Z M 56.613281 105.738281 C 45.515625 109.875 38.441406 115.625 38.441406 120.609375 C 38.441406 125.59375 45.515625 131.34375 56.613281 135.480469 C 58.097656 130.621094 59.960938 125.632812 62.175781 120.609375 C 59.960938 115.585938 58.097656 110.597656 56.613281 105.738281 Z M 67.976562 116.402344 L 66.558594 112.808594 C 65.125 109.179688 63.871094 105.519531 62.835938 101.925781 L 62.332031 100.1875 L 64.082031 99.730469 C 67.664062 98.796875 71.507812 98.003906 75.511719 97.378906 L 79.410156 96.773438 L 77.261719 100.089844 C 75.945312 102.121094 74.652344 104.191406 73.398438 106.328125 C 72.109375 108.539062 70.90625 110.757812 69.753906 112.976562 Z M 66.746094 102.699219 C 67.269531 104.421875 67.847656 106.15625 68.46875 107.890625 C 69.082031 106.773438 69.710938 105.65625 70.359375 104.542969 C 70.949219 103.527344 71.554688 102.527344 72.164062 101.539062 C 70.304688 101.886719 68.492188 102.28125 66.746094 102.699219 Z M 128.753906 116.402344 L 126.96875 112.976562 C 125.8125 110.757812 124.609375 108.539062 123.320312 106.324219 C 122.074219 104.1875 120.777344 102.117188 119.460938 100.082031 L 117.320312 96.769531 L 121.214844 97.375 C 125.222656 98.003906 129.070312 98.792969 132.644531 99.730469 L 134.398438 100.1875 L 133.894531 101.929688 C 132.847656 105.535156 131.597656 109.199219 130.167969 112.816406 Z M 124.558594 101.535156 C 125.167969 102.523438 125.773438 103.523438 126.367188 104.542969 C 127.019531 105.65625 127.644531 106.773438 128.257812 107.894531 C 128.878906 106.160156 129.457031 104.425781 129.988281 102.699219 C 128.234375 102.277344 126.417969 101.886719 124.558594 101.535156 Z M 135.257812 96.785156 L 133.46875 96.320312 C 127.875 94.855469 121.785156 93.753906 115.363281 93.050781 L 114.59375 92.96875 L 114.136719 92.347656 C 110.363281 87.226562 106.335938 82.484375 102.171875 78.261719 L 100.851562 76.921875 L 102.265625 75.683594 C 113.648438 65.753906 124.273438 61.839844 130.5625 65.4375 C 133.222656 66.957031 135.109375 69.738281 136.167969 73.695312 C 137.609375 79.089844 137.421875 86.449219 135.632812 94.972656 Z M 116.511719 89.621094 C 122.140625 90.269531 127.519531 91.214844 132.546875 92.441406 C 134.367188 85.703125 134.625 79.742188 132.769531 74.605469 C 131.703125 71.675781 130.640625 69.539062 128.824219 68.5 C 124.25 65.882812 115.386719 69.332031 106.007812 77.132812 C 109.648438 80.953125 113.175781 85.144531 116.511719 89.621094 Z M 61.476562 96.785156 L 61.09375 94.972656 C 59.304688 86.449219 59.117188 79.09375 60.558594 73.699219 C 61.621094 69.730469 63.503906 66.949219 66.167969 65.429688 C 72.472656 61.824219 83.089844 65.75 94.472656 75.6875 L 95.890625 76.925781 L 94.566406 78.261719 C 90.394531 82.492188 86.367188 87.234375 82.597656 92.347656 L 82.136719 92.972656 L 81.371094 93.054688 C 74.960938 93.757812 68.867188 94.859375 63.261719 96.324219 Z M 71.578125 67.617188 C 70.164062 67.617188 68.929688 67.910156 67.90625 68.496094 C 66.097656 69.53125 65.179688 71.730469 63.964844 74.609375 C 62.058594 79.113281 62.382812 85.25 64.1875 92.441406 C 69.21875 91.214844 74.597656 90.269531 80.222656 89.621094 C 83.554688 85.144531 87.085938 80.957031 90.734375 77.136719 C 83.441406 71.066406 76.523438 67.617188 71.578125 67.617188 Z M 86.765625 92.484375 L 89.230469 89.425781 C 91.734375 86.316406 94.386719 83.335938 97.117188 80.566406 L 98.367188 79.296875 L 99.617188 80.566406 C 102.359375 83.347656 105.007812 86.324219 107.5 89.421875 L 109.957031 92.480469 L 106.046875 92.296875 C 101.003906 92.058594 95.71875 92.058594 90.679688 92.296875 Z M 98.367188 88.574219 C 99.671875 88.574219 100.964844 88.589844 102.25 88.621094 C 100.992188 87.15625 99.691406 85.730469 98.371094 84.34375 C 97.054688 85.726562 95.753906 87.152344 94.488281 88.621094 C 95.773438 88.589844 97.0625 88.574219 98.367188 88.574219 Z M 98.367188 88.574219 " fill-opacity="1" fill-rule="nonzero"/></g><g clip-path="url(#d354637314)"><path fill="#83cd29" d="M 312.042969 265.546875 C 311.320312 265.546875 310.617188 265.695312 309.996094 266.046875 L 290.324219 277.410156 C 289.050781 278.140625 288.277344 279.527344 288.277344 281 L 288.277344 303.683594 C 288.277344 305.15625 289.050781 306.539062 290.324219 307.273438 L 295.460938 310.234375 C 297.957031 311.464844 298.878906 311.445312 300.015625 311.445312 C 303.710938 311.445312 305.820312 309.203125 305.820312 305.304688 L 305.820312 282.925781 C 305.820312 282.609375 305.546875 282.382812 305.234375 282.382812 L 302.769531 282.382812 C 302.453125 282.382812 302.1875 282.617188 302.1875 282.925781 L 302.1875 305.316406 C 302.1875 307.042969 300.386719 308.78125 297.464844 307.320312 L 292.125 304.1875 C 291.9375 304.085938 291.792969 303.898438 291.792969 303.6875 L 291.792969 281.003906 C 291.792969 280.789062 291.933594 280.570312 292.125 280.464844 L 311.757812 269.144531 C 311.941406 269.039062 312.160156 269.039062 312.339844 269.144531 L 331.972656 280.464844 C 332.160156 280.574219 332.308594 280.785156 332.308594 281.003906 L 332.308594 303.6875 C 332.308594 303.902344 332.199219 304.125 332.015625 304.230469 L 312.34375 315.550781 C 312.167969 315.648438 311.9375 315.648438 311.757812 315.550781 L 306.703125 312.542969 C 306.550781 312.453125 306.347656 312.460938 306.203125 312.542969 C 304.808594 313.332031 304.546875 313.425781 303.238281 313.878906 C 302.914062 313.992188 302.425781 314.164062 303.40625 314.714844 L 310.003906 318.605469 C 310.632812 318.96875 311.332031 319.148438 312.050781 319.148438 C 312.78125 319.148438 313.46875 318.972656 314.097656 318.605469 L 333.769531 307.285156 C 335.042969 306.542969 335.816406 305.164062 335.816406 303.691406 L 335.816406 281.011719 C 335.816406 279.539062 335.042969 278.15625 333.769531 277.417969 L 314.097656 266.058594 C 313.480469 265.707031 312.773438 265.558594 312.050781 265.558594 Z M 317.304688 281.753906 C 311.703125 281.753906 308.367188 284.136719 308.367188 288.101562 C 308.367188 292.398438 311.679688 293.585938 317.054688 294.117188 C 323.488281 294.746094 323.988281 295.691406 323.988281 296.957031 C 323.988281 299.152344 322.238281 300.089844 318.101562 300.089844 C 312.902344 300.089844 311.757812 298.792969 311.375 296.199219 C 311.332031 295.921875 311.117188 295.699219 310.832031 295.699219 L 308.277344 295.699219 C 308.117188 295.703125 307.980469 295.761719 307.867188 295.875 C 307.757812 295.988281 307.699219 296.125 307.695312 296.285156 C 307.695312 299.59375 309.496094 303.507812 318.09375 303.507812 C 324.320312 303.507812 327.910156 301.070312 327.910156 296.785156 C 327.910156 292.546875 325.011719 291.402344 318.972656 290.601562 C 312.875 289.789062 312.289062 289.402344 312.289062 287.972656 C 312.289062 286.792969 312.78125 285.214844 317.300781 285.214844 C 321.335938 285.214844 322.828125 286.085938 323.441406 288.804688 C 323.496094 289.0625 323.71875 289.269531 323.984375 289.269531 L 326.539062 289.269531 C 326.695312 289.269531 326.847656 289.171875 326.957031 289.0625 C 327.0625 288.941406 327.136719 288.804688 327.125 288.644531 C 326.730469 283.957031 323.601562 281.75 317.308594 281.75 Z M 317.304688 281.753906 " fill-opacity="1" fill-rule="nonzero"/></g><g clip-path="url(#6ed89668b5)"><path fill="#404137" d="M 196.386719 235.816406 C 196.164062 235.816406 195.953125 235.871094 195.757812 235.980469 C 195.34375 236.226562 195.136719 236.585938 195.132812 237.066406 L 195.132812 269.019531 C 195.132812 269.335938 194.988281 269.617188 194.714844 269.773438 C 194.421875 269.941406 194.128906 269.941406 193.839844 269.773438 L 188.617188 266.765625 C 188.230469 266.542969 187.8125 266.429688 187.363281 266.429688 C 186.914062 266.429688 186.5 266.542969 186.109375 266.765625 L 165.269531 278.792969 C 164.492188 279.242188 164.015625 280.109375 164.015625 281.007812 L 164.015625 305.066406 C 164.015625 305.515625 164.128906 305.933594 164.351562 306.320312 C 164.574219 306.707031 164.882812 307.015625 165.269531 307.238281 L 186.113281 319.269531 C 186.5 319.492188 186.917969 319.605469 187.363281 319.605469 C 187.8125 319.605469 188.230469 319.492188 188.617188 319.269531 L 209.460938 307.238281 C 209.847656 307.015625 210.15625 306.707031 210.378906 306.320312 C 210.601562 305.933594 210.714844 305.515625 210.714844 305.066406 L 210.714844 245.085938 C 210.714844 244.175781 210.214844 243.316406 209.417969 242.875 L 197.011719 235.9375 C 196.820312 235.828125 196.601562 235.808594 196.386719 235.8125 Z M 62.308594 265.847656 C 61.910156 265.863281 61.539062 265.929688 61.179688 266.136719 L 40.339844 278.167969 C 39.949219 278.390625 39.644531 278.695312 39.421875 279.085938 C 39.195312 279.472656 39.085938 279.890625 39.085938 280.339844 L 39.128906 312.628906 C 39.128906 313.078125 39.359375 313.492188 39.753906 313.714844 C 40.144531 313.945312 40.621094 313.945312 41.007812 313.714844 L 53.371094 306.613281 C 54.15625 306.148438 54.667969 305.335938 54.667969 304.441406 L 54.667969 289.359375 C 54.667969 288.460938 55.140625 287.636719 55.921875 287.191406 L 61.183594 284.140625 C 61.570312 283.914062 61.988281 283.804688 62.4375 283.804688 C 62.882812 283.804688 63.300781 283.914062 63.6875 284.140625 L 68.949219 287.1875 C 69.730469 287.632812 70.203125 288.460938 70.203125 289.359375 L 70.203125 304.4375 C 70.203125 305.335938 70.726562 306.148438 71.496094 306.609375 L 83.859375 313.710938 C 84.25 313.941406 84.726562 313.941406 85.113281 313.710938 C 85.496094 313.488281 85.742188 313.074219 85.742188 312.625 L 85.78125 280.335938 C 85.785156 279.886719 85.671875 279.46875 85.449219 279.082031 C 85.226562 278.691406 84.917969 278.386719 84.527344 278.164062 L 63.6875 266.140625 C 63.335938 265.933594 62.960938 265.863281 62.558594 265.847656 Z M 249.597656 266.136719 C 249.148438 266.136719 248.730469 266.25 248.34375 266.472656 L 227.5 278.503906 C 226.722656 278.953125 226.246094 279.773438 226.246094 280.671875 L 226.246094 304.730469 C 226.246094 305.636719 226.757812 306.457031 227.542969 306.902344 L 248.214844 318.6875 C 248.980469 319.125 249.910156 319.15625 250.679688 318.730469 L 263.210938 311.753906 C 263.609375 311.53125 263.878906 311.121094 263.878906 310.667969 C 263.878906 310.214844 263.644531 309.808594 263.253906 309.582031 L 242.285156 297.550781 C 241.890625 297.328125 241.617188 296.875 241.617188 296.425781 L 241.617188 288.902344 C 241.617188 288.453125 241.894531 288.039062 242.285156 287.816406 L 248.800781 284.054688 C 249.1875 283.832031 249.664062 283.832031 250.054688 284.054688 L 256.585938 287.816406 C 257.003906 288.054688 257.210938 288.417969 257.210938 288.902344 L 257.210938 294.832031 C 257.210938 295.316406 257.417969 295.675781 257.835938 295.917969 C 258.226562 296.144531 258.699219 296.144531 259.089844 295.917969 L 271.578125 288.648438 C 272.351562 288.199219 272.832031 287.375 272.832031 286.476562 L 272.832031 280.671875 C 272.832031 280.226562 272.71875 279.808594 272.496094 279.417969 C 272.273438 279.03125 271.964844 278.726562 271.578125 278.5 L 250.863281 266.472656 C 250.472656 266.246094 250.054688 266.136719 249.609375 266.136719 Z M 187.277344 284.101562 C 187.394531 284.097656 187.507812 284.128906 187.613281 284.183594 L 194.753906 288.316406 C 194.949219 288.429688 195.089844 288.636719 195.089844 288.859375 L 195.089844 297.132812 C 195.089844 297.355469 194.949219 297.5625 194.753906 297.671875 L 187.613281 301.808594 C 187.417969 301.917969 187.179688 301.917969 186.984375 301.808594 L 179.84375 297.671875 C 179.648438 297.5625 179.507812 297.355469 179.507812 297.132812 L 179.507812 288.863281 C 179.507812 288.640625 179.648438 288.433594 179.84375 288.320312 L 186.984375 284.1875 C 187.082031 284.128906 187.167969 284.101562 187.277344 284.101562 Z M 187.277344 284.101562 " fill-opacity="1" fill-rule="nonzero"/></g><g clip-path="url(#ae64fb7c63)"><path fill="#83cd29" d="M 124.917969 266.011719 C 124.46875 266.011719 124.050781 266.125 123.664062 266.347656 L 102.820312 278.335938 C 102.042969 278.785156 101.570312 279.648438 101.570312 280.546875 L 101.570312 304.605469 C 101.566406 305.054688 101.679688 305.472656 101.902344 305.859375 C 102.125 306.25 102.433594 306.554688 102.820312 306.777344 L 123.664062 318.808594 C 124.050781 319.03125 124.46875 319.144531 124.917969 319.144531 C 125.363281 319.144531 125.78125 319.03125 126.171875 318.808594 L 147.011719 306.777344 C 147.402344 306.554688 147.707031 306.25 147.929688 305.859375 C 148.15625 305.472656 148.265625 305.054688 148.265625 304.605469 L 148.265625 280.550781 C 148.265625 279.648438 147.792969 278.785156 147.011719 278.335938 L 126.167969 266.347656 C 125.78125 266.125 125.363281 266.011719 124.914062 266.015625 Z M 249.554688 287.480469 C 249.472656 287.480469 249.378906 287.480469 249.304688 287.523438 L 245.296875 289.863281 C 245.132812 289.953125 245.046875 290.09375 245.042969 290.28125 L 245.042969 294.875 C 245.042969 295.046875 245.144531 295.207031 245.296875 295.292969 L 249.304688 297.589844 C 249.457031 297.683594 249.609375 297.683594 249.765625 297.589844 L 253.773438 295.292969 C 253.921875 295.207031 254.023438 295.046875 254.023438 294.875 L 254.023438 290.28125 C 254.023438 290.105469 253.921875 289.949219 253.773438 289.863281 L 249.765625 287.523438 C 249.6875 287.476562 249.636719 287.480469 249.554688 287.480469 Z M 249.554688 287.480469 " fill-opacity="1" fill-rule="nonzero"/></g></svg>