<svg xmlns="http://www.w3.org/2000/svg" xmlns:xlink="http://www.w3.org/1999/xlink" width="1024" zoomAndPan="magnify" viewBox="0 0 768 767.999994" height="1024" preserveAspectRatio="xMidYMid meet" version="1.0"><defs><clipPath id="704f4016e5"><path d="M 13.023438 413.375 L 366.867188 413.375 L 366.867188 767 L 13.023438 767 Z M 13.023438 413.375 " clip-rule="nonzero"/></clipPath><clipPath id="ca75975550"><path d="M 13.023438 413.375 L 191 413.375 L 191 767 L 13.023438 767 Z M 13.023438 413.375 " clip-rule="nonzero"/></clipPath><clipPath id="6430fbaa0e"><path d="M 431.101562 413.375 L 754.789062 413.375 L 754.789062 767.21875 L 431.101562 767.21875 Z M 431.101562 413.375 " clip-rule="nonzero"/></clipPath><clipPath id="2dfb3d04ba"><path d="M 13.023438 1.628906 L 754.886719 1.628906 L 754.886719 373.566406 L 13.023438 373.566406 Z M 13.023438 1.628906 " clip-rule="nonzero"/></clipPath></defs><rect x="-76.8" width="921.6" fill="#ffffff" y="-76.799999" height="921.599993" fill-opacity="1"/><rect x="-76.8" width="921.6" fill="#eceff1" y="-76.799999" height="921.599993" fill-opacity="1"/><g clip-path="url(#704f4016e5)"><path fill="#ffc44d" d="M 26.191406 412.550781 C 22.648438 412.550781 19.28125 414.070312 16.9375 416.726562 C 14.59375 419.378906 13.503906 422.914062 13.941406 426.425781 L 46.859375 689.75 C 47.371094 693.847656 49.894531 697.414062 53.585938 699.257812 L 185.25 765.089844 C 188.722656 766.828125 192.8125 766.828125 196.289062 765.089844 L 327.949219 699.257812 C 331.644531 697.414062 334.167969 693.847656 334.679688 689.75 L 367.59375 426.425781 C 368.035156 422.914062 366.941406 419.378906 364.601562 416.726562 C 362.257812 414.070312 358.886719 412.550781 355.347656 412.550781 Z M 26.191406 412.550781 " fill-opacity="1" fill-rule="nonzero"/></g><g clip-path="url(#ca75975550)"><path fill="#e5b045" d="M 190.769531 412.550781 L 190.769531 766.394531 C 188.878906 766.394531 186.988281 765.960938 185.25 765.089844 L 53.585938 699.257812 C 49.894531 697.414062 47.371094 693.847656 46.859375 689.75 L 13.941406 426.425781 C 13.503906 422.914062 14.59375 419.378906 16.9375 416.726562 C 19.28125 414.070312 22.648438 412.550781 26.191406 412.550781 Z M 190.769531 412.550781 " fill-opacity="1" fill-rule="evenodd"/></g><path fill="#cfd8dc" d="M 166.082031 461.925781 C 172.902344 461.925781 178.425781 467.449219 178.425781 474.269531 L 178.425781 688.21875 C 178.425781 692.621094 176.085938 696.6875 172.277344 698.894531 C 168.472656 701.105469 163.78125 701.121094 159.960938 698.9375 L 102.359375 666.019531 C 96.4375 662.640625 94.382812 655.097656 97.765625 649.179688 C 101.148438 643.261719 108.6875 641.203125 114.605469 644.585938 L 153.738281 666.949219 L 153.738281 474.269531 C 153.738281 467.449219 159.265625 461.925781 166.082031 461.925781 Z M 166.082031 461.925781 " fill-opacity="1" fill-rule="evenodd"/><path fill="#eceff1" d="M 203.117188 474.269531 C 203.117188 467.449219 208.640625 461.925781 215.457031 461.925781 L 297.746094 461.925781 C 304.566406 461.925781 310.089844 467.449219 310.089844 474.269531 C 310.089844 481.085938 304.566406 486.613281 297.746094 486.613281 L 227.800781 486.613281 L 227.800781 565.855469 L 286.839844 552.738281 C 290.6875 551.882812 294.710938 552.914062 297.671875 555.515625 C 300.628906 558.121094 302.167969 561.976562 301.8125 565.902344 L 293.582031 656.421875 C 293.195312 660.679688 290.632812 664.433594 286.808594 666.34375 L 220.980469 699.257812 C 214.882812 702.308594 207.464844 699.835938 204.417969 693.738281 C 201.371094 687.640625 203.839844 680.226562 209.9375 677.179688 L 269.621094 647.339844 L 275.695312 580.5 L 218.136719 593.292969 C 214.480469 594.105469 210.65625 593.214844 207.734375 590.871094 C 204.8125 588.53125 203.117188 584.988281 203.117188 581.242188 Z M 203.117188 474.269531 " fill-opacity="1" fill-rule="evenodd"/><g clip-path="url(#6430fbaa0e)"><path fill="#2196f3" d="M 752.757812 415.792969 C 752.0625 415.019531 751.238281 414.425781 750.289062 414.003906 C 749.335938 413.582031 748.34375 413.371094 747.304688 413.375 L 438.585938 413.375 C 438.070312 413.371094 437.558594 413.421875 437.054688 413.527344 C 436.550781 413.632812 436.0625 413.789062 435.589844 413.996094 C 435.117188 414.203125 434.671875 414.460938 434.253906 414.761719 C 433.835938 415.0625 433.453125 415.40625 433.109375 415.785156 C 432.761719 416.167969 432.457031 416.582031 432.199219 417.03125 C 431.9375 417.476562 431.730469 417.945312 431.566406 418.433594 C 431.40625 418.925781 431.296875 419.429688 431.242188 419.941406 C 431.183594 420.453125 431.183594 420.96875 431.234375 421.484375 L 460.636719 716.351562 C 460.707031 717.058594 460.875 717.742188 461.140625 718.402344 C 461.40625 719.058594 461.761719 719.667969 462.203125 720.222656 C 462.644531 720.78125 463.15625 721.261719 463.738281 721.667969 C 464.320312 722.074219 464.945312 722.390625 465.621094 722.617188 L 597.929688 766.847656 C 598.699219 767.097656 599.488281 767.21875 600.292969 767.21875 C 601.1875 767.21875 602.046875 767.058594 602.882812 766.746094 L 720.488281 722.515625 C 721.132812 722.277344 721.734375 721.953125 722.289062 721.546875 C 722.84375 721.136719 723.328125 720.660156 723.75 720.117188 C 724.171875 719.570312 724.511719 718.980469 724.765625 718.339844 C 725.019531 717.699219 725.183594 717.039062 725.253906 716.351562 L 754.65625 421.484375 C 754.753906 420.441406 754.640625 419.425781 754.308594 418.433594 C 753.980469 417.445312 753.460938 416.5625 752.757812 415.792969 Z M 752.757812 415.792969 " fill-opacity="1" fill-rule="nonzero"/></g><path fill="#fafafa" d="M 600.292969 693.5 C 599.5 693.5 598.726562 693.375 597.972656 693.132812 L 531.816406 671.015625 C 531.203125 670.8125 530.628906 670.53125 530.089844 670.171875 C 529.550781 669.816406 529.066406 669.394531 528.636719 668.910156 C 528.207031 668.421875 527.851562 667.890625 527.5625 667.308594 C 527.273438 666.730469 527.066406 666.121094 526.9375 665.488281 L 519.585938 628.628906 C 519.488281 628.152344 519.441406 627.675781 519.4375 627.191406 C 519.433594 626.707031 519.480469 626.226562 519.570312 625.75 C 519.664062 625.277344 519.800781 624.8125 519.984375 624.367188 C 520.164062 623.917969 520.390625 623.492188 520.65625 623.085938 C 520.921875 622.683594 521.226562 622.308594 521.5625 621.964844 C 521.902344 621.621094 522.273438 621.3125 522.675781 621.042969 C 523.074219 620.769531 523.496094 620.542969 523.941406 620.355469 C 524.386719 620.167969 524.847656 620.023438 525.320312 619.925781 C 525.792969 619.832031 526.269531 619.78125 526.753906 619.777344 C 527.234375 619.777344 527.714844 619.820312 528.1875 619.914062 C 528.664062 620.003906 529.125 620.144531 529.570312 620.328125 C 530.015625 620.507812 530.441406 620.734375 530.84375 621 C 531.246094 621.269531 531.621094 621.574219 531.964844 621.914062 C 532.304688 622.253906 532.613281 622.625 532.882812 623.027344 C 533.152344 623.429688 533.382812 623.851562 533.570312 624.296875 C 533.753906 624.746094 533.898438 625.207031 533.992188 625.679688 L 540.507812 658.335938 L 600.148438 678.3125 L 652.570312 658.601562 L 679.769531 501.835938 L 512.089844 501.835938 C 511.605469 501.835938 511.128906 501.789062 510.65625 501.691406 C 510.179688 501.597656 509.722656 501.457031 509.277344 501.273438 C 508.832031 501.089844 508.40625 500.863281 508.003906 500.59375 C 507.605469 500.324219 507.234375 500.019531 506.890625 499.675781 C 506.550781 499.332031 506.246094 498.960938 505.976562 498.558594 C 505.710938 498.15625 505.484375 497.730469 505.296875 497.285156 C 505.113281 496.835938 504.972656 496.375 504.878906 495.902344 C 504.785156 495.425781 504.738281 494.945312 504.738281 494.464844 C 504.738281 493.980469 504.785156 493.5 504.878906 493.023438 C 504.972656 492.550781 505.113281 492.089844 505.296875 491.640625 C 505.484375 491.195312 505.710938 490.769531 505.976562 490.367188 C 506.246094 489.964844 506.550781 489.59375 506.890625 489.25 C 507.234375 488.910156 507.605469 488.601562 508.003906 488.332031 C 508.40625 488.066406 508.832031 487.835938 509.277344 487.652344 C 509.722656 487.46875 510.179688 487.328125 510.65625 487.234375 C 511.128906 487.136719 511.605469 487.089844 512.089844 487.089844 L 688.5 487.089844 C 689.039062 487.089844 689.566406 487.148438 690.089844 487.265625 C 690.613281 487.378906 691.121094 487.550781 691.605469 487.777344 C 692.09375 488.003906 692.550781 488.28125 692.976562 488.609375 C 693.402344 488.9375 693.785156 489.304688 694.132812 489.71875 C 694.476562 490.128906 694.773438 490.574219 695.023438 491.050781 C 695.269531 491.527344 695.464844 492.023438 695.605469 492.542969 C 695.746094 493.0625 695.828125 493.59375 695.851562 494.128906 C 695.875 494.667969 695.839844 495.199219 695.75 495.730469 L 666.347656 665.28125 C 666.234375 665.914062 666.046875 666.519531 665.777344 667.101562 C 665.507812 667.6875 665.171875 668.222656 664.761719 668.71875 C 664.355469 669.210938 663.890625 669.644531 663.367188 670.015625 C 662.847656 670.390625 662.285156 670.6875 661.6875 670.914062 L 602.882812 693.027344 C 602.046875 693.34375 601.1875 693.5 600.292969 693.5 Z M 600.292969 693.5 " fill-opacity="1" fill-rule="nonzero"/><path fill="#fafafa" d="M 673.800781 575.550781 L 519.441406 575.550781 C 518.957031 575.550781 518.480469 575.503906 518.003906 575.410156 C 517.53125 575.316406 517.074219 575.175781 516.625 574.992188 C 516.179688 574.804688 515.757812 574.578125 515.355469 574.308594 C 514.953125 574.039062 514.582031 573.734375 514.242188 573.394531 C 513.902344 573.050781 513.597656 572.679688 513.328125 572.277344 C 513.058594 571.875 512.832031 571.449219 512.648438 571 C 512.464844 570.554688 512.324219 570.09375 512.230469 569.617188 C 512.136719 569.144531 512.089844 568.664062 512.089844 568.179688 C 512.089844 567.695312 512.136719 567.21875 512.230469 566.742188 C 512.324219 566.265625 512.464844 565.804688 512.648438 565.359375 C 512.832031 564.914062 513.058594 564.488281 513.328125 564.085938 C 513.597656 563.683594 513.902344 563.308594 514.242188 562.96875 C 514.582031 562.625 514.953125 562.320312 515.355469 562.050781 C 515.757812 561.78125 516.179688 561.554688 516.625 561.371094 C 517.074219 561.183594 517.53125 561.042969 518.003906 560.949219 C 518.480469 560.855469 518.957031 560.808594 519.441406 560.808594 L 673.800781 560.808594 C 674.28125 560.808594 674.761719 560.855469 675.234375 560.949219 C 675.707031 561.042969 676.167969 561.183594 676.613281 561.371094 C 677.058594 561.554688 677.480469 561.78125 677.882812 562.050781 C 678.285156 562.320312 678.65625 562.625 678.996094 562.96875 C 679.339844 563.308594 679.644531 563.683594 679.910156 564.085938 C 680.179688 564.488281 680.40625 564.914062 680.589844 565.359375 C 680.777344 565.804688 680.914062 566.265625 681.007812 566.742188 C 681.101562 567.21875 681.148438 567.695312 681.148438 568.179688 C 681.148438 568.664062 681.101562 569.144531 681.007812 569.617188 C 680.914062 570.09375 680.777344 570.554688 680.589844 571 C 680.40625 571.449219 680.179688 571.875 679.910156 572.277344 C 679.644531 572.679688 679.339844 573.050781 678.996094 573.394531 C 678.65625 573.734375 678.285156 574.039062 677.882812 574.308594 C 677.480469 574.578125 677.058594 574.804688 676.613281 574.992188 C 676.167969 575.175781 675.707031 575.316406 675.234375 575.410156 C 674.761719 575.503906 674.28125 575.550781 673.800781 575.550781 Z M 673.800781 575.550781 " fill-opacity="1" fill-rule="nonzero"/><g clip-path="url(#2dfb3d04ba)"><path fill="#4db6ac" d="M 13.023438 63.617188 C 13.023438 29.523438 40.84375 1.628906 74.847656 1.628906 L 693.066406 1.628906 C 727.070312 1.628906 754.886719 29.523438 754.886719 63.617188 L 754.886719 311.578125 C 754.886719 345.671875 727.070312 373.566406 693.066406 373.566406 L 74.847656 373.566406 C 40.84375 373.566406 13.023438 345.671875 13.023438 311.578125 Z M 13.023438 63.617188 " fill-opacity="1" fill-rule="nonzero"/></g><path fill="#ffffff" d="M 275.769531 265.085938 L 244.855469 265.085938 L 244.855469 198.445312 L 198.492188 198.445312 L 198.492188 265.085938 L 167.578125 265.085938 L 167.578125 110.109375 L 198.492188 110.109375 L 198.492188 172.101562 L 244.855469 172.101562 L 244.855469 110.109375 L 275.769531 110.109375 Z M 383.957031 136.457031 L 353.046875 136.457031 L 353.046875 265.085938 L 322.132812 265.085938 L 322.132812 136.457031 L 292.769531 136.457031 L 292.769531 110.109375 L 383.957031 110.109375 Z M 439.597656 110.109375 L 468.960938 221.691406 L 498.328125 110.109375 L 538.511719 110.109375 L 538.511719 265.085938 L 507.601562 265.085938 L 507.601562 223.242188 L 510.691406 158.152344 L 479.78125 265.085938 L 458.144531 265.085938 L 427.230469 158.152344 L 430.324219 223.242188 L 430.324219 265.085938 L 399.410156 265.085938 L 399.410156 110.109375 Z M 584.878906 238.738281 L 638.972656 238.738281 L 638.972656 265.085938 L 553.964844 265.085938 L 553.964844 110.109375 L 584.878906 110.109375 Z M 584.878906 238.738281 " fill-opacity="1" fill-rule="nonzero"/></svg>